<svg class="svg-icon" style="width: 1em; height: 1em;vertical-align: middle;fill: currentColor;overflow: hidden;" viewBox="0 0 1024 1024" version="1.1" xmlns="http://www.w3.org/2000/svg"><path d="M512 512m-414 0a414 414 0 1 0 828 0 414 414 0 1 0-828 0Z" fill="#F0C48A" /><path d="M593.8 851.6h59v160.8h-59z" fill="#FFFFFF" /><path d="M623.2 857.2h20v152.4h-20zM694.8 708.4h-143.2l20.6-102h102z" fill="#A4CFF2" /><path d="M634.2 605.6l14 96.6 46.6 6.2-22.4-102z" fill="#7BABF1" /><path d="M572.2 523h100.2v83.4h-100.2z" fill="#A4CFF2" /><path d="M634.2 523.8h36.2v81.8h-36.2z" fill="#7BABF1" /><path d="M593.8 112.4h59v70.6h-59z" fill="#D3E6F8" /><path d="M623.2 104h20v79h-20z" fill="#A4CFF2" /><path d="M593.8 273.6h59v148.6h-59z" fill="#D3E6F8" /><path d="M623.2 278h20v137.6h-20z" fill="#A4CFF2" /><path d="M516.8 112.4c-86 0-155.4 70-154.8 156 0.6 85.4 71.4 153.6 156.8 153.6h244.2v100.8H519.4c-141.2 0-257.8-113.4-258.4-254.6-0.4-141.6 114.2-256.4 255.8-256.4h80.4c35.6 0 69.8 14.2 95 39.4h70.8v61.4H516.8z" fill="#FD919E" /><path d="M707.4 51h55.6v65.2h-55.6zM707.4 422.2h55.6v100.8h-55.6z" fill="#E8677D" /><path d="M551.6 708.4h143v143h-143z" fill="#7BABF1" /><path d="M694.8 863.2h-143c-6.4 0-11.8-5.2-11.8-11.8v-143c0-6.4 5.2-11.8 11.8-11.8h143c6.4 0 11.8 5.2 11.8 11.8v143c-0.2 6.6-5.4 11.8-11.8 11.8z m-131.4-23.4h119.6v-119.6h-119.6v119.6z" fill="#4C4372" /><path d="M694.8 720.2h-143c-3.6 0-6.8-1.6-9-4.2-2.2-2.8-3.2-6.2-2.4-9.8l20.6-102c1-5.4 6-9.4 11.4-9.4h102c5.6 0 10.4 4 11.4 9.4l20.6 102c0.6 3.4-0.2 7-2.4 9.8-2.4 2.6-5.8 4.2-9.2 4.2zM566 696.8h114.4l-15.8-78.6h-82.8l-15.8 78.6zM652.6 1024h-59c-6.4 0-11.8-5.2-11.8-11.8v-160.8c0-6.4 5.2-11.8 11.8-11.8h59c6.4 0 11.8 5.2 11.8 11.8v160.8c0 6.6-5.2 11.8-11.8 11.8z m-47.2-23.4h35.4v-137.2h-35.4v137.2zM652.6 433.8h-59c-6.4 0-11.8-5.2-11.8-11.8v-148.6c0-6.4 5.2-11.8 11.8-11.8h59c6.4 0 11.8 5.2 11.8 11.8V422c0 6.6-5.2 11.8-11.8 11.8z m-47.2-23.4h35.4v-125.2h-35.4v125.2zM652.6 194.8h-59c-6.4 0-11.8-5.2-11.8-11.8V112.4c0-6.4 5.2-11.8 11.8-11.8h59c6.4 0 11.8 5.2 11.8 11.8v70.6c0 6.6-5.2 11.8-11.8 11.8z m-47.2-23.4h35.4V124.2h-35.4v47.2z" fill="#4C4372" /><path d="M672.4 618.2h-100.2c-6.4 0-11.8-5.2-11.8-11.8v-83.6c0-6.4 5.2-11.8 11.8-11.8h100.2c6.4 0 11.8 5.2 11.8 11.8v83.6c0 6.4-5.4 11.8-11.8 11.8zM584 594.6h76.8v-60H584v60z" fill="#4C4372" /><path d="M762.8 534.6H519.4c-148.4 0-269.6-119.4-270-266.4-0.2-71.6 27.4-139 78-189.6C377.8 28 445.2 0 516.8 0h80.4c37.4 0 72.6 14 99.8 39.4h66c6.4 0 11.8 5.2 11.8 11.8v61.4c0 6.4-5.2 11.8-11.8 11.8H516.8c-38.4 0-74.6 15-101.6 42.2-27 27.2-41.8 63.4-41.6 102 0.6 78.4 65.6 142 145 142h244.2c6.4 0 11.8 5.2 11.8 11.8v100.8c0 6.2-5.2 11.4-11.8 11.4z m-246-511.2c-65.2 0-126.6 25.4-172.8 71.8-46 46.2-71.4 107.6-71.2 173 0.4 134 111.2 243 246.6 243h231.6V434H518.6c-92.2 0-167.8-74.2-168.6-165.4-0.4-44.8 16.8-86.8 48.4-118.6C430 118.2 472 100.8 516.8 100.8h234.4v-38H692c-3.2 0-6-1.2-8.2-3.4-23.2-23.2-54-36-86.8-36h-80.2zM593.8 791.8h-42c-6.4 0-11.8-5.2-11.8-11.8 0-6.4 5.2-11.8 11.8-11.8h42c6.4 0 11.8 5.2 11.8 11.8-0.2 6.4-5.4 11.8-11.8 11.8zM694.4 791.8h-42c-6.4 0-11.8-5.2-11.8-11.8 0-6.4 5.2-11.8 11.8-11.8h42c6.4 0 11.8 5.2 11.8 11.8-0.2 6.4-5.4 11.8-11.8 11.8z" fill="#4C4372" /><path d="M695.2 485.6h-149.6c-6.4 0-11.8-5.2-11.8-11.8 0-6.4 5.2-11.8 11.8-11.8h149.6c6.4 0 11.8 5.2 11.8 11.8-0.2 6.6-5.4 11.8-11.8 11.8z" fill="#4C4372" /></svg>