<?xml version="1.0" encoding="UTF-8" standalone="no"?>
<!-- Created with Inkscape (http://www.inkscape.org/) -->
<svg xmlns:inkscape="http://www.inkscape.org/namespaces/inkscape" xmlns:rdf="http://www.w3.org/1999/02/22-rdf-syntax-ns#" xmlns="http://www.w3.org/2000/svg" xmlns:sodipodi="http://sodipodi.sourceforge.net/DTD/sodipodi-0.dtd" xmlns:ns1="http://sozi.baierouge.fr" xmlns:cc="http://creativecommons.org/ns#" xmlns:xlink="http://www.w3.org/1999/xlink" xmlns:dc="http://purl.org/dc/elements/1.1/" id="svg5071" sodipodi:docname="micrometers-outdoor-analog-4906-2518105.jpg.svg" viewBox="0 0 600 277" version="1.1" inkscape:version="0.48.4 r9939">
  <defs id="defs5075">
    <linearGradient id="linearGradient5326">
      <stop id="stop5328" style="stop-color:#4d4d4d" offset="0"/>
      <stop id="stop5334" style="stop-color:#cccccc" offset=".27969"/>
      <stop id="stop5336" style="stop-color:#808080" offset=".49074"/>
      <stop id="stop5340" style="stop-color:#808080" offset=".70370"/>
      <stop id="stop5338" style="stop-color:#4d4d4d" offset=".82407"/>
      <stop id="stop5330" style="stop-color:#333333" offset="1"/>
    </linearGradient>
    <linearGradient id="linearGradient5142" inkscape:collect="always">
      <stop id="stop5144" style="stop-color:#b3b3b3" offset="0"/>
      <stop id="stop5148" style="stop-color:#ffffff" offset=".48543"/>
      <stop id="stop5146" style="stop-color:#b3b3b3" offset="1"/>
    </linearGradient>
    <clipPath id="clipPath5307" clipPathUnits="userSpaceOnUse">
      <rect id="rect5309" style="fill:#b3b3b3" height="130" width="363.18" y="142.62" x="-39.326"/>
    </clipPath>
    <linearGradient id="linearGradient7029" y2="61.43" xlink:href="#linearGradient5326" gradientUnits="userSpaceOnUse" x2="158.87" gradientTransform="matrix(1.6948 0 0 1 -30.501 -551.97)" y1="34.452" x1="158.87" inkscape:collect="always"/>
    <linearGradient id="linearGradient8324" y2="61.43" xlink:href="#linearGradient5326" gradientUnits="userSpaceOnUse" x2="158.87" gradientTransform="matrix(.12272 0 0 1 94.353 -551.97)" y1="34.452" x1="158.87" inkscape:collect="always"/>
    <linearGradient id="linearGradient8326" y2="-5.6395" gradientUnits="userSpaceOnUse" x2="281.77" gradientTransform="translate(36.122 -467.04)" y1="-67.588" x1="281.77" inkscape:collect="always">
      <stop id="stop5162" style="stop-color:#b3b3b3" offset="0"/>
      <stop id="stop5166" style="stop-color:#ffffff" offset=".51411"/>
      <stop id="stop5164" style="stop-color:#b3b3b3" offset="1"/>
    </linearGradient>
    <linearGradient id="linearGradient8380" y2="-47.118" gradientUnits="userSpaceOnUse" x2="284.23" gradientTransform="translate(-12.728 -308.3)" y1="-223.21" x1="283.31" inkscape:collect="always">
      <stop id="stop7167" style="stop-color:#b3b3b3" offset="0"/>
      <stop id="stop7169" style="stop-color:#ececec" offset=".16966"/>
      <stop id="stop7171" style="stop-color:#cccccc" offset=".40678"/>
      <stop id="stop7173" style="stop-color:#999999" offset=".65628"/>
      <stop id="stop7175" style="stop-color:#999999" offset="1"/>
    </linearGradient>
    <linearGradient id="linearGradient8383" y2="-93.726" gradientUnits="userSpaceOnUse" x2="105.48" gradientTransform="translate(-12.728 -308.3)" y1="-200.61" x1="105.27" inkscape:collect="always">
      <stop id="stop7129" style="stop-color:#b3b3b3" offset="0"/>
      <stop id="stop7131" style="stop-color:#ececec" offset=".18523"/>
      <stop id="stop7133" style="stop-color:#b3b3b3" offset=".60776"/>
      <stop id="stop7135" style="stop-color:#999999" offset="1"/>
    </linearGradient>
    <linearGradient id="linearGradient8484" y2="-2.2673" xlink:href="#linearGradient5142" gradientUnits="userSpaceOnUse" x2="415.15" gradientTransform="matrix(.99202 0 0 1 40.818 -467.04)" y1="-72.209" x1="412.16" inkscape:collect="always"/>
    <linearGradient id="linearGradient8486" y2=".73022" gradientUnits="userSpaceOnUse" x2="457.62" gradientTransform="matrix(.99202 0 0 1 40.818 -467.04)" y1="-75.706" x1="456.12" inkscape:collect="always">
      <stop id="stop5134" style="stop-color:#b3b3b3" offset="0"/>
      <stop id="stop5168" style="stop-color:#ffffff" offset=".49977"/>
      <stop id="stop5136" style="stop-color:#b3b3b3" offset="1"/>
    </linearGradient>
    <linearGradient id="linearGradient8490" y2="-13.258" gradientUnits="userSpaceOnUse" x2="546.54" gradientTransform="matrix(.99202 0 0 1 38.834 -467.04)" y1="-58.72" x1="546.54" inkscape:collect="always">
      <stop id="stop5184" style="stop-color:#b3b3b3" offset="0"/>
      <stop id="stop5186" style="stop-color:#ffffff" offset=".48543"/>
      <stop id="stop5188" style="stop-color:#b3b3b3" offset="1"/>
    </linearGradient>
    <filter id="filter8538" inkscape:collect="always">
      <feGaussianBlur id="feGaussianBlur8540" stdDeviation="8.5115733" inkscape:collect="always"/>
    </filter>
    <linearGradient id="linearGradient8791" y2="181.66" gradientUnits="userSpaceOnUse" x2="54.26" y1="139.16" x1="44.027" inkscape:collect="always">
      <stop id="stop8494" style="stop-color:#808080" offset="0"/>
      <stop id="stop8496" style="stop-color:#333333" offset="1"/>
    </linearGradient>
    <linearGradient id="linearGradient8793" y2="190.41" gradientUnits="userSpaceOnUse" x2="126.85" y1="126.16" x1="126.61" inkscape:collect="always">
      <stop id="stop8510" style="stop-color:#808080" offset="0"/>
      <stop id="stop8512" style="stop-color:#333333" offset="1"/>
    </linearGradient>
  </defs>
  <sodipodi:namedview id="namedview5073" bordercolor="#666666" inkscape:pageshadow="2" guidetolerance="10" pagecolor="#ffffff" gridtolerance="10" inkscape:window-maximized="1" inkscape:zoom="0.56001778" objecttolerance="10" borderopacity="1" inkscape:current-layer="svg5071" inkscape:cx="158.59697" inkscape:cy="305.2508" inkscape:window-y="24" inkscape:window-x="0" inkscape:window-width="1366" showgrid="false" inkscape:pageopacity="0" inkscape:window-height="744"/>
  <g id="g8581" transform="translate(-24.999 560.7)">
    <g id="g7964" style="filter:url(#filter8538);stroke:#0c0c0c;fill:#000000" transform="translate(-2)">
      <rect id="rect7966" style="stroke:#0c0c0c;fill:#000000" height="27.727" width="11.74" y="-518.52" x="107.53"/>
      <g id="g7968" style="stroke:#0c0c0c;fill:#000000">
        <g id="g7970" style="stroke:#0c0c0c;fill:#000000">
          <rect id="rect7972" style="stroke:#0c0c0c;stroke-width:.2;fill:#000000" height="61.199" width="143.38" y="-535.75" x="304.4"/>
          <rect id="rect7974" style="stroke:#0c0c0c;fill:#000000" height=".70652" width="143.51" y="-505.37" x="303.79"/>
          <rect id="rect7976" style="stroke:#0c0c0c;fill:#000000" transform="matrix(.00080577 -1 1 .00060954 0 0)" height=".70652" width="11.675" y="309.74" x="506.5"/>
          <rect id="rect7978" style="stroke:#0c0c0c;fill:#000000" transform="matrix(.00080577 -1 1 .00060954 0 0)" height=".70652" width="11.675" y="333.74" x="506.51"/>
          <rect id="rect7980" style="stroke:#0c0c0c;fill:#000000" transform="rotate(269.32)" height=".70652" width="6.0054" y="320.06" x="502.63"/>
          <rect id="rect7982" style="stroke:#0c0c0c;fill:#000000" transform="rotate(269.32)" height=".70652" width="6.0054" y="324.06" x="502.59"/>
          <rect id="rect7984" style="stroke:#0c0c0c;fill:#000000" transform="rotate(269.32)" height=".70652" width="6.0054" y="328.06" x="502.54"/>
          <rect id="rect7986" style="stroke:#0c0c0c;fill:#000000" transform="rotate(269.32)" height=".70652" width="6.0054" y="332.06" x="502.49"/>
          <rect id="rect7988" style="stroke:#0c0c0c;fill:#000000" transform="rotate(269.32)" height=".70652" width="6.0054" y="336.06" x="502.45"/>
          <rect id="rect7990" style="stroke:#0c0c0c;fill:#000000" transform="rotate(269.32)" height=".70652" width="6.0054" y="344.06" x="502.35"/>
          <rect id="rect7992" style="stroke:#0c0c0c;fill:#000000" transform="rotate(269.32)" height=".70652" width="6.0054" y="317.94" x="492.66"/>
          <rect id="rect7994" style="stroke:#0c0c0c;fill:#000000" transform="rotate(269.32)" height=".70652" width="6.0054" y="321.94" x="492.61"/>
          <rect id="rect7996" style="stroke:#0c0c0c;fill:#000000" transform="rotate(269.32)" height=".70652" width="6.0054" y="325.94" x="492.57"/>
          <rect id="rect7998" style="stroke:#0c0c0c;fill:#000000" transform="rotate(269.32)" height=".70652" width="6.0054" y="329.94" x="492.52"/>
          <rect id="rect8000" style="stroke:#0c0c0c;fill:#000000" transform="rotate(269.32)" height=".70652" width="6.0054" y="333.94" x="492.47"/>
          <rect id="rect8002" style="stroke:#0c0c0c;fill:#000000" transform="rotate(269.32)" height=".70652" width="6.0054" y="337.94" x="492.42"/>
          <rect id="rect8004" style="stroke:#0c0c0c;fill:#000000" transform="rotate(269.32)" height=".70652" width="6.0054" y="341.94" x="492.38"/>
          <rect id="rect8006" style="stroke:#0c0c0c;fill:#000000" transform="rotate(269.32)" height=".70652" width="6.0054" y="345.94" x="492.33"/>
          <text id="text8008" style="font-size:13.084px;font-family:Sans;letter-spacing:0px;line-height:125%;word-spacing:0px;stroke:#0c0c0c;fill:#000000" xml:space="preserve" y="-521.50861" x="306.03375" sodipodi:linespacing="125%">
            <tspan id="tspan8010" sodipodi:role="line" x="306.03375" y="-521.50861">0 </tspan>
          </text>
          <text id="text8012" style="font-size:12.617px;font-family:Sans;letter-spacing:0px;line-height:125%;word-spacing:0px;stroke:#0c0c0c;fill:#000000" xml:space="preserve" y="-521.62689" x="330.79684" sodipodi:linespacing="125%">
            <tspan id="tspan8014" sodipodi:role="line" x="330.79684" y="-521.62689">5</tspan>
          </text>
          <rect id="rect8016" style="stroke:#0c0c0c;fill:#000000" transform="rotate(269.32)" height=".70652" width="6.0054" y="348.06" x="502.31"/>
          <rect id="rect8018" style="stroke:#0c0c0c;fill:#000000" transform="rotate(269.32)" height=".70652" width="6.0054" y="352.06" x="502.26"/>
          <rect id="rect8020" style="stroke:#0c0c0c;fill:#000000" transform="rotate(269.32)" height=".70652" width="6.0054" y="356.06" x="502.21"/>
          <rect id="rect8022" style="stroke:#0c0c0c;fill:#000000" transform="rotate(269.32)" height=".70652" width="6.0054" y="360.06" x="502.16"/>
          <rect id="rect8024" style="stroke:#0c0c0c;fill:#000000" transform="rotate(269.32)" height=".70652" width="6.0054" y="368.06" x="502.07"/>
          <rect id="rect8026" style="stroke:#0c0c0c;fill:#000000" transform="rotate(269.32)" height=".70652" width="6.0054" y="372.06" x="502.02"/>
          <rect id="rect8028" style="stroke:#0c0c0c;fill:#000000" transform="rotate(269.32)" height=".70652" width="6.0054" y="376.05" x="501.98"/>
          <rect id="rect8030" style="stroke:#0c0c0c;fill:#000000" transform="rotate(269.32)" height=".70652" width="6.0054" y="376.05" x="501.98"/>
          <rect id="rect8032" style="stroke:#0c0c0c;fill:#000000" transform="rotate(269.32)" height=".70652" width="6.0054" y="380.05" x="501.93"/>
          <rect id="rect8034" style="stroke:#0c0c0c;fill:#000000" transform="rotate(269.32)" height=".70652" width="6.0054" y="384.05" x="501.88"/>
          <rect id="rect8036" style="stroke:#0c0c0c;fill:#000000" transform="rotate(269.32)" height=".70652" width="6.0054" y="388.05" x="501.83"/>
          <rect id="rect8038" style="stroke:#0c0c0c;fill:#000000" transform="rotate(269.32)" height=".70652" width="6.0054" y="396.05" x="501.74"/>
          <rect id="rect8040" style="stroke:#0c0c0c;fill:#000000" transform="rotate(269.32)" height=".70652" width="6.0054" y="400.05" x="501.69"/>
          <rect id="rect8042" style="stroke:#0c0c0c;fill:#000000" transform="rotate(269.32)" height=".70652" width="6.0054" y="404.05" x="501.65"/>
          <rect id="rect8044" style="stroke:#0c0c0c;fill:#000000" transform="rotate(269.32)" height=".70652" width="6.0054" y="408.05" x="501.6"/>
          <rect id="rect8046" style="stroke:#0c0c0c;fill:#000000" transform="rotate(269.32)" height=".70652" width="6.0054" y="412.05" x="501.55"/>
          <rect id="rect8048" style="stroke:#0c0c0c;fill:#000000" transform="rotate(269.32)" height=".70652" width="6.0054" y="349.94" x="492.28"/>
          <rect id="rect8050" style="stroke:#0c0c0c;fill:#000000" transform="rotate(269.32)" height=".70652" width="6.0054" y="353.94" x="492.24"/>
          <rect id="rect8052" style="stroke:#0c0c0c;fill:#000000" transform="rotate(269.32)" height=".70652" width="6.0054" y="357.94" x="492.19"/>
          <rect id="rect8054" style="stroke:#0c0c0c;fill:#000000" transform="rotate(269.32)" height=".70652" width="6.0054" y="361.94" x="492.14"/>
          <rect id="rect8056" style="stroke:#0c0c0c;fill:#000000" transform="rotate(269.32)" height=".70652" width="6.0054" y="365.94" x="492.09"/>
          <rect id="rect8058" style="stroke:#0c0c0c;fill:#000000" transform="rotate(269.32)" height=".70652" width="6.0054" y="369.94" x="492.05"/>
          <rect id="rect8060" style="stroke:#0c0c0c;fill:#000000" transform="rotate(269.32)" height=".70652" width="6.0054" y="373.94" x="492"/>
          <rect id="rect8062" style="stroke:#0c0c0c;fill:#000000" transform="rotate(269.32)" height=".70652" width="6.0054" y="377.94" x="491.95"/>
          <rect id="rect8064" style="stroke:#0c0c0c;fill:#000000" transform="rotate(269.32)" height=".70652" width="6.0054" y="381.94" x="491.91"/>
          <rect id="rect8066" style="stroke:#0c0c0c;fill:#000000" transform="rotate(269.32)" height=".70652" width="6.0054" y="385.94" x="491.86"/>
          <rect id="rect8068" style="stroke:#0c0c0c;fill:#000000" transform="rotate(269.32)" height=".70652" width="6.0054" y="389.94" x="491.81"/>
          <rect id="rect8070" style="stroke:#0c0c0c;fill:#000000" transform="rotate(269.32)" height=".70652" width="6.0054" y="393.94" x="491.77"/>
          <rect id="rect8072" style="stroke:#0c0c0c;fill:#000000" transform="rotate(269.32)" height=".70652" width="6.0054" y="397.94" x="491.72"/>
          <rect id="rect8074" style="stroke:#0c0c0c;fill:#000000" transform="rotate(269.32)" height=".70652" width="6.0054" y="401.94" x="491.67"/>
          <rect id="rect8076" style="stroke:#0c0c0c;fill:#000000" transform="rotate(269.32)" height=".70652" width="6.0054" y="405.94" x="491.62"/>
          <rect id="rect8078" style="stroke:#0c0c0c;fill:#000000" transform="rotate(269.32)" height=".70652" width="6.0054" y="409.93" x="491.58"/>
          <rect id="rect8080" style="stroke:#0c0c0c;fill:#000000" transform="rotate(269.32)" height=".70652" width="6.0054" y="413.93" x="491.53"/>
          <rect id="rect8082" style="stroke:#0c0c0c;fill:#000000" transform="matrix(.00080577 -1 1 .00060954 0 0)" height=".70652" width="11.675" y="357.74" x="506.53"/>
          <rect id="rect8084" style="stroke:#0c0c0c;fill:#000000" transform="matrix(.00080577 -1 1 .00060954 0 0)" height=".70652" width="11.675" y="385.74" x="506.54"/>
          <rect id="rect8086" style="stroke:#0c0c0c;fill:#000000" transform="matrix(.00080577 -1 1 .00060954 0 0)" height=".70652" width="11.675" y="409.74" x="506.56"/>
          <text id="text8088" style="font-size:11.719px;font-family:Sans;letter-spacing:0px;line-height:125%;word-spacing:0px;stroke:#0c0c0c;fill:#000000" sodipodi:linespacing="125%" y="-521.87433" x="350.8616" xml:space="preserve">
            <tspan id="tspan8090" y="-521.87433" x="350.8616" sodipodi:role="line">10</tspan>
          </text>
          <text id="text8092" style="font-size:11.027px;font-family:Sans;letter-spacing:0px;line-height:125%;word-spacing:0px;stroke:#0c0c0c;fill:#000000" sodipodi:linespacing="125%" y="-522.65967" x="379.57266" xml:space="preserve">
            <tspan id="tspan8094" y="-522.65967" x="379.57266" sodipodi:role="line">15</tspan>
          </text>
          <text id="text8096" style="font-size:10.86px;font-family:Sans;letter-spacing:0px;line-height:125%;word-spacing:0px;stroke:#0c0c0c;fill:#000000" sodipodi:linespacing="125%" y="-523.26447" x="403.5914" xml:space="preserve">
            <tspan id="tspan8098" y="-523.26447" x="403.5914" sodipodi:role="line">20</tspan>
          </text>
        </g>
        <path id="path8100" d="m84.254-513.81 4.4499-5.2851 18.36-0.17393 1.4988 100.42 14.979 11.167-79.925 0.82254-0.33572-6.4249 8.1602-8.4326 32.414-77.788z" sodipodi:nodetypes="cccccccccc" style="stroke:#0c0c0c;fill:#000000" inkscape:connector-curvature="0"/>
        <path id="path8102" d="m244.72-539.01 59.18 0.26495v131.39l-78.433-0.52989 14.984-12.625-0.34983-59.691-3.1996-2.0368 0.40935-45.752 2.6743-1.7645-0.0628-5.2405z" sodipodi:nodetypes="ccccccccccc" style="stroke:#0c0c0c;fill:#000000" inkscape:connector-curvature="0"/>
        <path id="path8104" style="stroke:#0c0c0c;fill:#000000" d="m261.78 140.36c0 71.047-57.595 128.64-128.64 128.64-48.194 0-90.198-26.502-112.23-65.727-10.449-18.601-16.409-40.062-16.409-62.916 0-70.021 11.854 3.4848 81.483 1.8543 0.26599-0.006-0.80311 18.491 3.5134 31.748 9.0063 27.662 28.304 33.71 38.525 35.136 2.8288 0.39457 1.2602-0.19083 2.2878 0.0632 19.718 4.8749 42.616-15.515 45.812-21.105 27.943-48.871-43.593-176.34-42.978-176.34 71.047 0 128.64 57.595 128.64 128.64z" clip-path="url(#clipPath5307)" sodipodi:nodetypes="sssssssssss" inkscape:connector-curvature="0" transform="matrix(1.0505 0 0 1 33.751 -550.41)"/>
        <path id="path8106" d="m345.36-537.25 29.24-5.995 76.57 0.24979v76.187l-78.552 0.24979-27.506-5.995z" sodipodi:nodetypes="ccccccc" style="stroke:#0c0c0c;stroke-width:.2;fill:#000000" inkscape:connector-curvature="0"/>
        <path id="path8108" d="m459.85-546.24h82.021c4.8048 0 8.673 3.8992 8.673 8.7427v63.947c0 4.8435-3.8681 8.7427-8.673 8.7427h-82.021c-4.8048 0-8.8876 0.0973-8.9208-4.746l-0.4956-72.44c-0.0331-4.8434 4.6115-4.2465 9.4164-4.2465z" sodipodi:nodetypes="sssssssss" style="stroke:#0c0c0c;stroke-width:.2;fill:#000000" inkscape:connector-curvature="0"/>
        <rect id="rect8110" style="stroke:#0c0c0c;stroke-width:.2;fill:#000000" ry="1.7485" height="39.467" width="13.381" y="-525.01" x="550.79"/>
        <rect id="rect8112" style="stroke:#0c0c0c;fill:#000000" height=".70652" width="13.424" y="-505.37" x="345.79"/>
        <rect id="rect8114" style="stroke:#0c0c0c;fill:#000000" height=".70652" width="13.424" y="-525.37" x="345.79"/>
        <rect id="rect8116" style="stroke:#0c0c0c;fill:#000000" height=".70652" width="13.424" y="-481.37" x="345.79"/>
        <rect id="rect8118" style="stroke:#0c0c0c;fill:#000000" height=".70652" width="6.0054" y="-477.37" x="345.79"/>
        <rect id="rect8120" style="stroke:#0c0c0c;fill:#000000" height=".70652" width="6.0054" y="-485.37" x="345.79"/>
        <rect id="rect8122" style="stroke:#0c0c0c;fill:#000000" height=".70652" width="6.0054" y="-489.37" x="345.79"/>
        <rect id="rect8124" style="stroke:#0c0c0c;fill:#000000" height=".70652" width="6.0054" y="-493.37" x="345.79"/>
        <rect id="rect8126" style="stroke:#0c0c0c;fill:#000000" height=".70652" width="6.0054" y="-497.37" x="345.79"/>
        <rect id="rect8128" style="stroke:#0c0c0c;fill:#000000" height=".70652" width="6.0054" y="-501.37" x="345.79"/>
        <rect id="rect8130" style="stroke:#0c0c0c;fill:#000000" height=".70652" width="6.0054" y="-509.37" x="345.79"/>
        <rect id="rect8132" style="stroke:#0c0c0c;fill:#000000" height=".70652" width="6.0054" y="-513.37" x="345.79"/>
        <rect id="rect8134" style="stroke:#0c0c0c;fill:#000000" height=".70652" width="6.0054" y="-517.37" x="345.79"/>
        <rect id="rect8136" style="stroke:#0c0c0c;fill:#000000" height=".70652" width="6.0054" y="-521.37" x="345.79"/>
        <rect id="rect8138" style="stroke:#0c0c0c;fill:#000000" height=".70652" width="6.0054" y="-529.37" x="345.79"/>
        <rect id="rect8140" style="stroke:#0c0c0c;fill:#000000" height=".70652" width="6.0054" y="-533.37" x="345.79"/>
        <text id="text8142" style="font-size:13.084px;font-family:Sans;letter-spacing:0px;line-height:125%;word-spacing:0px;stroke:#0c0c0c;fill:#000000" xml:space="preserve" y="-500.57022" x="364.15866" sodipodi:linespacing="125%">
          <tspan id="tspan8144" sodipodi:role="line" x="364.15866" y="-500.57022">0 </tspan>
        </text>
        <text id="text8146" style="font-size:12.617px;font-family:Sans;letter-spacing:0px;line-height:125%;word-spacing:0px;stroke:#0c0c0c;fill:#000000" xml:space="preserve" y="-521.62689" x="364.79684" sodipodi:linespacing="125%">
          <tspan id="tspan8148" sodipodi:role="line" x="364.79684" y="-521.62689">5</tspan>
        </text>
        <text id="text8150" style="font-size:12.018px;font-family:Sans;letter-spacing:0px;line-height:125%;word-spacing:0px;stroke:#0c0c0c;fill:#000000" sodipodi:linespacing="125%" y="-476.95459" x="361.34073" xml:space="preserve">
          <tspan id="tspan8152" y="-476.95459" x="361.34073" sodipodi:role="line">45</tspan>
        </text>
        <g id="g8154" style="stroke:#0c0c0c;fill:#000000" transform="matrix(1 -.0015323 .0015323 1 .90082 -.088625)">
          <path id="path8156" sodipodi:nodetypes="cssssssssssc" style="stroke:#0c0c0c;stroke-width:0.6;fill:#000000" inkscape:connector-curvature="0" d="m578.04-526.26h33.205c7.4132 0 13.381 6.016 13.381 13.489v15.237c0 7.4728-4.9768 14.021-12.39 13.988l-32.871-0.14401c-2.9921-0.0131-7.4488-0.0452-10.132-0.0986-3.9642-0.0789-6.9483-1.0472-7.0527-5.5026l-0.74339-31.724c-0.10721-4.5752 2.5675-5.25 6.9766-5.2904 2.7904-0.0256 6.7527 0.0447 9.6259 0.0447z"/>
          <rect id="rect8158" style="stroke:#0c0c0c;stroke-width:.19214;fill:#000000" height=".70835" width="59.61" y="-519.98" x="562"/>
          <rect id="rect8160" style="stroke:#0c0c0c;stroke-width:.19551;fill:#000000" height=".70822" width="61.732" y="-513.98" x="562"/>
          <rect id="rect8162" style="stroke:#0c0c0c;stroke-width:.19551;fill:#000000" height=".70822" width="61.732" y="-507.98" x="562"/>
          <rect id="rect8164" style="stroke:#0c0c0c;stroke-width:.19551;fill:#000000" height=".70822" width="61.732" y="-501.98" x="562"/>
          <rect id="rect8166" style="stroke:#0c0c0c;stroke-width:.19551;fill:#000000" height=".70822" width="61.732" y="-495.98" x="562"/>
          <rect id="rect8168" style="stroke:#0c0c0c;stroke-width:.19214;fill:#000000" height=".70835" width="59.61" y="-489.98" x="562"/>
        </g>
      </g>
    </g>
    <rect id="rect6547" style="fill:url(#linearGradient7029)" height="27.727" width="162.14" y="-518.52" x="151.53"/>
    <g id="g7360">
      <rect id="rect6529" style="stroke:#000000;stroke-width:.2;fill:url(#linearGradient8326)" height="61.199" width="143.38" y="-535.75" x="304.4"/>
      <rect id="rect6551" style="fill:#000000" height=".70652" width="143.51" y="-505.37" x="303.79"/>
      <rect id="rect6583" style="fill:#000000" transform="matrix(.00080577 -1 1 .00060954 0 0)" height=".70652" width="11.675" y="309.74" x="506.5"/>
      <rect id="rect6585" style="fill:#000000" transform="matrix(.00080577 -1 1 .00060954 0 0)" height=".70652" width="11.675" y="333.74" x="506.51"/>
      <rect id="rect6587" style="fill:#000000" transform="rotate(269.32)" height=".70652" width="6.0054" y="320.06" x="502.63"/>
      <rect id="rect6589" style="fill:#000000" transform="rotate(269.32)" height=".70652" width="6.0054" y="324.06" x="502.59"/>
      <rect id="rect6591" style="fill:#000000" transform="rotate(269.32)" height=".70652" width="6.0054" y="328.06" x="502.54"/>
      <rect id="rect6593" style="fill:#000000" transform="rotate(269.32)" height=".70652" width="6.0054" y="332.06" x="502.49"/>
      <rect id="rect6595" style="fill:#000000" transform="rotate(269.32)" height=".70652" width="6.0054" y="336.06" x="502.45"/>
      <rect id="rect6597" style="fill:#000000" transform="rotate(269.32)" height=".70652" width="6.0054" y="344.06" x="502.35"/>
      <rect id="rect6599" style="fill:#000000" transform="rotate(269.32)" height=".70652" width="6.0054" y="317.94" x="492.66"/>
      <rect id="rect6601" style="fill:#000000" transform="rotate(269.32)" height=".70652" width="6.0054" y="321.94" x="492.61"/>
      <rect id="rect6603" style="fill:#000000" transform="rotate(269.32)" height=".70652" width="6.0054" y="325.94" x="492.57"/>
      <rect id="rect6605" style="fill:#000000" transform="rotate(269.32)" height=".70652" width="6.0054" y="329.94" x="492.52"/>
      <rect id="rect6607" style="fill:#000000" transform="rotate(269.32)" height=".70652" width="6.0054" y="333.94" x="492.47"/>
      <rect id="rect6609" style="fill:#000000" transform="rotate(269.32)" height=".70652" width="6.0054" y="337.94" x="492.42"/>
      <rect id="rect6611" style="fill:#000000" transform="rotate(269.32)" height=".70652" width="6.0054" y="341.94" x="492.38"/>
      <rect id="rect6613" style="fill:#000000" transform="rotate(269.32)" height=".70652" width="6.0054" y="345.94" x="492.33"/>
      <text id="text6615" style="font-size:13.084px;font-family:Sans;letter-spacing:0px;line-height:125%;word-spacing:0px;fill:#000000" sodipodi:linespacing="125%" y="-521.50861" x="306.03375" xml:space="preserve">
        <tspan id="tspan6617" y="-521.50861" x="306.03375" sodipodi:role="line">0 </tspan>
      </text>
      <text id="text6619" style="font-size:12.617px;font-family:Sans;letter-spacing:0px;line-height:125%;word-spacing:0px;fill:#000000" sodipodi:linespacing="125%" y="-521.62689" x="330.79684" xml:space="preserve">
        <tspan id="tspan6621" y="-521.62689" x="330.79684" sodipodi:role="line">5</tspan>
      </text>
      <rect id="rect7203" style="fill:#000000" transform="rotate(269.32)" height=".70652" width="6.0054" y="348.06" x="502.31"/>
      <rect id="rect7205" style="fill:#000000" transform="rotate(269.32)" height=".70652" width="6.0054" y="352.06" x="502.26"/>
      <rect id="rect7207" style="fill:#000000" transform="rotate(269.32)" height=".70652" width="6.0054" y="356.06" x="502.21"/>
      <rect id="rect7209" style="fill:#000000" transform="rotate(269.32)" height=".70652" width="6.0054" y="360.06" x="502.16"/>
      <rect id="rect7211" style="fill:#000000" transform="rotate(269.32)" height=".70652" width="6.0054" y="368.06" x="502.07"/>
      <rect id="rect7213" style="fill:#000000" transform="rotate(269.32)" height=".70652" width="6.0054" y="372.06" x="502.02"/>
      <rect id="rect7215" style="fill:#000000" transform="rotate(269.32)" height=".70652" width="6.0054" y="376.05" x="501.98"/>
      <rect id="rect7217" style="fill:#000000" transform="rotate(269.32)" height=".70652" width="6.0054" y="376.05" x="501.98"/>
      <rect id="rect7221" style="fill:#000000" transform="rotate(269.32)" height=".70652" width="6.0054" y="380.05" x="501.93"/>
      <rect id="rect7223" style="fill:#000000" transform="rotate(269.32)" height=".70652" width="6.0054" y="384.05" x="501.88"/>
      <rect id="rect7225" style="fill:#000000" transform="rotate(269.32)" height=".70652" width="6.0054" y="388.05" x="501.83"/>
      <rect id="rect7229" style="fill:#000000" transform="rotate(269.32)" height=".70652" width="6.0054" y="396.05" x="501.74"/>
      <rect id="rect7231" style="fill:#000000" transform="rotate(269.32)" height=".70652" width="6.0054" y="400.05" x="501.69"/>
      <rect id="rect7233" style="fill:#000000" transform="rotate(269.32)" height=".70652" width="6.0054" y="404.05" x="501.65"/>
      <rect id="rect7235" style="fill:#000000" transform="rotate(269.32)" height=".70652" width="6.0054" y="408.05" x="501.6"/>
      <rect id="rect7237" style="fill:#000000" transform="rotate(269.32)" height=".70652" width="6.0054" y="412.05" x="501.55"/>
      <rect id="rect7239" style="fill:#000000" transform="rotate(269.32)" height=".70652" width="6.0054" y="349.94" x="492.28"/>
      <rect id="rect7241" style="fill:#000000" transform="rotate(269.32)" height=".70652" width="6.0054" y="353.94" x="492.24"/>
      <rect id="rect7243" style="fill:#000000" transform="rotate(269.32)" height=".70652" width="6.0054" y="357.94" x="492.19"/>
      <rect id="rect7245" style="fill:#000000" transform="rotate(269.32)" height=".70652" width="6.0054" y="361.94" x="492.14"/>
      <rect id="rect7247" style="fill:#000000" transform="rotate(269.32)" height=".70652" width="6.0054" y="365.94" x="492.09"/>
      <rect id="rect7249" style="fill:#000000" transform="rotate(269.32)" height=".70652" width="6.0054" y="369.94" x="492.05"/>
      <rect id="rect7251" style="fill:#000000" transform="rotate(269.32)" height=".70652" width="6.0054" y="373.94" x="492"/>
      <rect id="rect7253" style="fill:#000000" transform="rotate(269.32)" height=".70652" width="6.0054" y="377.94" x="491.95"/>
      <rect id="rect7255" style="fill:#000000" transform="rotate(269.32)" height=".70652" width="6.0054" y="381.94" x="491.91"/>
      <rect id="rect7257" style="fill:#000000" transform="rotate(269.32)" height=".70652" width="6.0054" y="385.94" x="491.86"/>
      <rect id="rect7259" style="fill:#000000" transform="rotate(269.32)" height=".70652" width="6.0054" y="389.94" x="491.81"/>
      <rect id="rect7261" style="fill:#000000" transform="rotate(269.32)" height=".70652" width="6.0054" y="393.94" x="491.77"/>
      <rect id="rect7263" style="fill:#000000" transform="rotate(269.32)" height=".70652" width="6.0054" y="397.94" x="491.72"/>
      <rect id="rect7265" style="fill:#000000" transform="rotate(269.32)" height=".70652" width="6.0054" y="401.94" x="491.67"/>
      <rect id="rect7267" style="fill:#000000" transform="rotate(269.32)" height=".70652" width="6.0054" y="405.94" x="491.62"/>
      <rect id="rect7269" style="fill:#000000" transform="rotate(269.32)" height=".70652" width="6.0054" y="409.93" x="491.58"/>
      <rect id="rect7271" style="fill:#000000" transform="rotate(269.32)" height=".70652" width="6.0054" y="413.93" x="491.53"/>
      <rect id="rect7273" style="fill:#000000" transform="matrix(.00080577 -1 1 .00060954 0 0)" height=".70652" width="11.675" y="357.74" x="506.53"/>
      <rect id="rect7275" style="fill:#000000" transform="matrix(.00080577 -1 1 .00060954 0 0)" height=".70652" width="11.675" y="385.74" x="506.54"/>
      <rect id="rect7277" style="fill:#000000" transform="matrix(.00080577 -1 1 .00060954 0 0)" height=".70652" width="11.675" y="409.74" x="506.56"/>
      <text id="text7279" style="font-size:11.719px;font-family:Sans;letter-spacing:0px;line-height:125%;word-spacing:0px;fill:#000000" xml:space="preserve" y="-521.87433" x="350.8616" sodipodi:linespacing="125%">
        <tspan id="tspan7283" sodipodi:role="line" x="350.8616" y="-521.87433">10</tspan>
      </text>
      <text id="text7287" style="font-size:11.027px;font-family:Sans;letter-spacing:0px;line-height:125%;word-spacing:0px;fill:#000000" xml:space="preserve" y="-522.65967" x="379.57266" sodipodi:linespacing="125%">
        <tspan id="tspan7289" sodipodi:role="line" x="379.57266" y="-522.65967">15</tspan>
      </text>
      <text id="text7291" style="font-size:10.86px;font-family:Sans;letter-spacing:0px;line-height:125%;word-spacing:0px;fill:#000000" xml:space="preserve" y="-523.26447" x="403.5914" sodipodi:linespacing="125%">
        <tspan id="tspan7293" sodipodi:role="line" x="403.5914" y="-523.26447">20</tspan>
      </text>
    </g>
    <path id="path6545" style="fill:url(#linearGradient8791)" d="m261.78 140.36c0 71.047-57.595 128.64-128.64 128.64-48.194 0-90.198-26.502-112.23-65.727-10.449-18.601-16.409-40.062-16.409-62.916 0-70.021 11.854 3.4848 81.483 1.8543 0.26599-0.006-0.80311 18.491 3.5134 31.748 9.0063 27.662 28.304 33.71 38.525 35.136 2.8288 0.39457 1.2602-0.19083 2.2878 0.0632 19.718 4.8749 42.616-15.515 45.812-21.105 27.943-48.871-43.593-176.34-42.978-176.34 71.047 0 128.64 57.595 128.64 128.64z" clip-path="url(#clipPath5307)" sodipodi:nodetypes="sssssssssss" inkscape:connector-curvature="0" transform="matrix(1.0505 0 0 1 33.751 -550.41)"/>
    <g id="g8542">
      <path id="path6541" d="m84.254-513.81 4.4499-5.2851 18.36-0.17393 1.4988 100.42 14.979 11.167-79.925 0.82254-0.33572-6.4249 8.1602-8.4326 32.414-77.788z" sodipodi:nodetypes="cccccccccc" style="fill:url(#linearGradient8383)" inkscape:connector-curvature="0"/>
      <rect id="rect6549" style="fill:url(#linearGradient8324)" height="27.727" width="11.74" y="-518.52" x="107.53"/>
      <path id="path6543" d="m244.72-539.01 59.18 0.26495v131.39l-78.433-0.52989 14.984-12.625-0.34983-59.691-3.1996-2.0368 0.40935-45.752 2.6743-1.7645-0.0628-5.2405z" sodipodi:nodetypes="ccccccccccc" style="fill:url(#linearGradient8380)" inkscape:connector-curvature="0"/>
      <g id="g8450" transform="translate(-6)">
        <path id="path6533" sodipodi:nodetypes="ccccccc" style="stroke:#000000;stroke-width:.2;fill:url(#linearGradient8484)" inkscape:connector-curvature="0" d="m345.36-537.25 29.24-5.995 76.57 0.24979v76.187l-78.552 0.24979-27.506-5.995z"/>
        <path id="path6535" sodipodi:nodetypes="sssssssss" style="stroke:#000000;stroke-width:.2;fill:url(#linearGradient8486)" inkscape:connector-curvature="0" d="m459.85-546.24h82.021c4.8048 0 8.673 3.8992 8.673 8.7427v63.947c0 4.8435-3.8681 8.7427-8.673 8.7427h-82.021c-4.8048 0-8.8876 0.0973-8.9208-4.746l-0.4956-72.44c-0.0331-4.8434 4.6115-4.2465 9.4164-4.2465z"/>
        <rect id="rect6537" style="stroke:#000000;stroke-width:.2;fill:url(#linearGradient8484)" ry="1.7485" height="39.467" width="13.381" y="-525.01" x="550.79"/>
        <rect id="rect6553" style="fill:#000000" height=".70652" width="13.424" y="-505.37" x="345.79"/>
        <rect id="rect6555" style="fill:#000000" height=".70652" width="13.424" y="-525.37" x="345.79"/>
        <rect id="rect6557" style="fill:#000000" height=".70652" width="13.424" y="-481.37" x="345.79"/>
        <rect id="rect6559" style="fill:#000000" height=".70652" width="6.0054" y="-477.37" x="345.79"/>
        <rect id="rect6561" style="fill:#000000" height=".70652" width="6.0054" y="-485.37" x="345.79"/>
        <rect id="rect6563" style="fill:#000000" height=".70652" width="6.0054" y="-489.37" x="345.79"/>
        <rect id="rect6565" style="fill:#000000" height=".70652" width="6.0054" y="-493.37" x="345.79"/>
        <rect id="rect6567" style="fill:#000000" height=".70652" width="6.0054" y="-497.37" x="345.79"/>
        <rect id="rect6569" style="fill:#000000" height=".70652" width="6.0054" y="-501.37" x="345.79"/>
        <rect id="rect6571" style="fill:#000000" height=".70652" width="6.0054" y="-509.37" x="345.79"/>
        <rect id="rect6573" style="fill:#000000" height=".70652" width="6.0054" y="-513.37" x="345.79"/>
        <rect id="rect6575" style="fill:#000000" height=".70652" width="6.0054" y="-517.37" x="345.79"/>
        <rect id="rect6577" style="fill:#000000" height=".70652" width="6.0054" y="-521.37" x="345.79"/>
        <rect id="rect6579" style="fill:#000000" height=".70652" width="6.0054" y="-529.37" x="345.79"/>
        <rect id="rect6581" style="fill:#000000" height=".70652" width="6.0054" y="-533.37" x="345.79"/>
        <text id="text6623" style="font-size:13.084px;font-family:Sans;letter-spacing:0px;line-height:125%;word-spacing:0px;fill:#000000" sodipodi:linespacing="125%" y="-500.57022" x="364.15866" xml:space="preserve">
          <tspan id="tspan6625" y="-500.57022" x="364.15866" sodipodi:role="line">0 </tspan>
        </text>
        <text id="text6627" style="font-size:12.617px;font-family:Sans;letter-spacing:0px;line-height:125%;word-spacing:0px;fill:#000000" sodipodi:linespacing="125%" y="-521.62689" x="364.79684" xml:space="preserve">
          <tspan id="tspan6629" y="-521.62689" x="364.79684" sodipodi:role="line">5</tspan>
        </text>
        <text id="text6631" style="font-size:12.018px;font-family:Sans;letter-spacing:0px;line-height:125%;word-spacing:0px;fill:#000000" xml:space="preserve" y="-476.95459" x="361.34073" sodipodi:linespacing="125%">
          <tspan id="tspan6633" sodipodi:role="line" x="361.34073" y="-476.95459">45</tspan>
        </text>
        <g id="g7486" transform="matrix(1 -.0015323 .0015323 1 .90082 -.088625)">
          <path id="path6539" d="m578.04-526.26h33.205c7.4132 0 13.381 6.016 13.381 13.489v15.237c0 7.4728-4.9768 14.021-12.39 13.988l-32.871-0.14401c-2.9921-0.0131-7.4488-0.0452-10.132-0.0986-3.9642-0.0789-6.9483-1.0472-7.0527-5.5026l-0.74339-31.724c-0.10721-4.5752 2.5675-5.25 6.9766-5.2904 2.7904-0.0256 6.7527 0.0447 9.6259 0.0447z" sodipodi:nodetypes="cssssssssssc" style="stroke:#666666;stroke-width:0.6;fill:url(#linearGradient8490)" inkscape:connector-curvature="0"/>
          <rect id="rect7426" style="stroke:#000000;stroke-width:.19214;fill:#999999" height=".70835" width="59.61" y="-519.98" x="562"/>
          <rect id="rect7428" style="stroke:#000000;stroke-width:.19551;fill:#999999" height=".70822" width="61.732" y="-513.98" x="562"/>
          <rect id="rect7430" style="stroke:#000000;stroke-width:.19551;fill:#999999" height=".70822" width="61.732" y="-507.98" x="562"/>
          <rect id="rect7432" style="stroke:#000000;stroke-width:.19551;fill:#999999" height=".70822" width="61.732" y="-501.98" x="562"/>
          <rect id="rect7434" style="stroke:#000000;stroke-width:.19551;fill:#999999" height=".70822" width="61.732" y="-495.98" x="562"/>
          <rect id="rect7436" style="stroke:#000000;stroke-width:.19214;fill:#999999" height=".70835" width="59.61" y="-489.98" x="562"/>
        </g>
      </g>
      <path id="path8500" style="fill:url(#linearGradient8793)" d="m261.78 140.36c0 71.047-57.595 128.64-128.64 128.64-48.194 0-90.198-26.502-112.23-65.727-10.449-18.601-16.409-40.062-16.409-62.916 0-70.021 11.854 3.4848 81.483 1.8543 0.26599-0.006-0.80311 18.491 3.5134 31.748 9.0063 27.662 28.304 33.71 38.525 35.136 2.8288 0.39457 1.2602-0.19083 2.2878 0.0632 19.718 4.8749 42.616-15.515 45.812-21.105 27.943-48.871-43.593-176.34-42.978-176.34 71.047 0 128.64 57.595 128.64 128.64z" clip-path="url(#clipPath5307)" sodipodi:nodetypes="sssssssssss" inkscape:connector-curvature="0" transform="matrix(1.0505 0 0 1 33.751 -550.41)"/>
    </g>
  </g>
  <metadata>
    <rdf:RDF>
      <cc:Work>
        <dc:format>image/svg+xml</dc:format>
        <dc:type rdf:resource="http://purl.org/dc/dcmitype/StillImage"/>
        <cc:license rdf:resource="http://creativecommons.org/licenses/publicdomain/"/>
        <dc:publisher>
          <cc:Agent rdf:about="http://openclipart.org/">
            <dc:title>Openclipart</dc:title>
          </cc:Agent>
        </dc:publisher>
      </cc:Work>
      <cc:License rdf:about="http://creativecommons.org/licenses/publicdomain/">
        <cc:permits rdf:resource="http://creativecommons.org/ns#Reproduction"/>
        <cc:permits rdf:resource="http://creativecommons.org/ns#Distribution"/>
        <cc:permits rdf:resource="http://creativecommons.org/ns#DerivativeWorks"/>
      </cc:License>
    </rdf:RDF>
  </metadata>
</svg>
